<svg width="1092" height="178" viewBox="0 0 1092 178" fill="none" xmlns="http://www.w3.org/2000/svg">
<path d="M125.272 107.932L150.044 83.1611C150.044 66.175 145.797 49.8966 138.012 35.7416L80.33 89.1769V178H91.3002C129.873 178 161.368 146.859 161.368 107.932H125.272Z" fill="#1C1C1C"/>
<path d="M36.0954 70.0676L11.3241 94.839C11.3241 111.825 15.5706 128.103 23.3559 142.258L81.0378 88.823V0H70.0676C31.495 0 0 31.1412 0 70.0676H36.0954V70.0676Z" fill="#1C1C1C"/>
<path d="M1035.49 178C1021.85 178 1010.56 174.947 1001.6 168.84C992.849 162.531 986.336 154.491 982.061 144.72C977.99 134.747 975.955 124.468 975.955 113.883C975.955 102.281 978.194 91.697 982.672 82.1303C987.353 72.3602 994.07 64.6255 1002.82 58.9262C1011.78 53.227 1022.46 50.3773 1034.88 50.3773C1045.67 50.3773 1055.13 52.7181 1063.28 57.3997C1071.62 61.8776 1078.24 68.3911 1083.12 76.94C1088.21 85.4888 1091.06 95.5643 1091.67 107.166C1091.87 107.981 1091.98 109.202 1091.98 110.83C1091.98 112.255 1091.98 113.578 1091.98 114.799H994.884C994.884 129.251 998.345 140.65 1005.27 148.995C1012.39 157.137 1022.36 161.208 1035.19 161.208C1044.75 161.208 1052.89 158.765 1059.61 153.88C1066.53 148.995 1070.81 142.38 1072.44 134.034H1091.67C1090.25 142.38 1087.09 149.911 1082.21 156.628C1077.32 163.345 1070.91 168.637 1062.97 172.504C1055.03 176.168 1045.87 178 1035.49 178ZM995.495 104.113H1071.82C1071.82 100.856 1071.11 97.1927 1069.69 93.1218C1068.47 88.8473 1066.43 84.7764 1063.58 80.9091C1060.73 76.8382 1056.97 73.4797 1052.28 70.8336C1047.6 68.1875 1041.7 66.8645 1034.58 66.8645C1028.27 66.8645 1022.77 67.984 1018.09 70.223C1013.41 72.2584 1009.44 75.1081 1006.18 78.7719C1003.13 82.2321 1000.69 86.2013 998.854 90.6792C997.225 95.1572 996.106 99.6352 995.495 104.113Z" fill="#1C1C1C"/>
<path d="M898.309 178C890.37 178 883.552 176.779 877.852 174.336C872.357 171.894 867.777 168.637 864.113 164.566C860.653 160.292 858.007 155.508 856.175 150.216C854.343 144.72 853.02 139.021 852.206 133.118C851.595 127.012 851.29 120.906 851.29 114.799V50.6827H870.83V115.105C870.83 123.246 871.644 130.778 873.273 137.698C875.105 144.619 878.463 150.114 883.348 154.185C888.233 158.256 895.459 160.292 905.026 160.292C914.185 160.292 921.309 158.154 926.398 153.88C931.69 149.605 935.557 144.212 938 137.698C940.442 130.981 941.867 123.959 942.274 116.631V50.6827H962.425V174.947H945.633L942.274 147.163H941.664C940.849 149.809 939.425 152.862 937.389 156.322C935.557 159.783 932.911 163.141 929.451 166.398C925.991 169.655 921.615 172.403 916.322 174.642C911.234 176.881 905.229 178 898.309 178Z" fill="#1C1C1C"/>
<path d="M814.654 174.947V3.05317H833.889V174.947H814.654Z" fill="#1C1C1C"/>
<path d="M717.349 178C701.676 178 687.428 174.743 674.604 168.23C661.985 161.513 651.909 151.539 644.378 138.309C637.05 125.078 633.488 108.795 633.692 89.458C633.692 69.7141 637.254 53.227 644.378 39.9966C651.705 26.7661 661.781 16.7924 674.604 10.0755C687.428 3.35849 702.083 0 718.57 0C732.615 0 745.031 2.54431 755.819 7.63293C766.607 12.7216 775.359 20.0492 782.076 29.6158C788.997 38.9789 793.678 50.2756 796.121 63.506H775.664C773.832 53.1252 770.169 44.6781 764.673 38.1647C759.177 31.4477 752.46 26.4608 744.522 23.2041C736.584 19.9474 727.933 18.319 718.57 18.319C698.216 18.319 682.237 24.3236 670.635 36.3328C659.033 48.3419 653.232 65.6432 653.232 88.2367C653.232 111.644 658.931 129.455 670.33 141.667C681.728 153.676 697.503 159.681 717.654 159.681C727.831 159.681 736.991 158.053 745.133 154.796C753.478 151.336 760.399 146.247 765.894 139.53C771.39 132.813 774.952 124.468 776.58 114.494H797.342C795.103 127.521 790.523 138.818 783.603 148.384C776.682 157.747 767.624 165.075 756.429 170.367C745.438 175.456 732.411 178 717.349 178Z" fill="#1C1C1C"/>
<path d="M599.513 174.947V50.6827H619.358V174.947H599.513ZM609.588 32.0583C604.5 32.0583 601.039 30.7353 599.207 28.0892C597.376 25.4431 596.46 22.3899 596.46 18.9297C596.46 15.6729 597.376 12.8233 599.207 10.3808C601.039 7.73469 604.5 6.41165 609.588 6.41165C614.677 6.41165 618.035 7.73469 619.664 10.3808C621.292 12.8233 622.106 15.6729 622.106 18.9297C622.106 22.3899 621.292 25.4431 619.664 28.0892C618.035 30.7353 614.677 32.0583 609.588 32.0583Z" fill="#1C1C1C"/>
<path d="M468.138 174.947V50.6827H484.931L488.289 81.5197H488.9C489.307 80.502 490.223 78.3648 491.648 75.1081C493.276 71.6478 495.718 68.0858 498.975 64.422C502.232 60.7582 506.608 57.6032 512.104 54.9571C517.803 52.1075 524.927 50.6827 533.476 50.6827C542.025 50.6827 549.149 52.0057 554.848 54.6518C560.548 57.0943 565.025 60.5546 568.282 65.0326C571.742 69.307 574.287 74.1921 575.915 79.6878C577.543 85.1835 578.561 90.8828 578.968 96.7856C579.579 102.485 579.884 108.082 579.884 113.578V174.947H560.955V113.578C560.955 104.622 559.937 96.7856 557.901 90.0686C556.07 83.1481 552.711 77.8559 547.826 74.1921C542.941 70.3248 536.02 68.3911 527.064 68.3911C517.905 68.3911 510.475 70.6301 504.776 75.1081C499.077 79.3825 494.904 85.1835 492.258 92.5112C489.612 99.6352 488.289 107.472 488.289 116.021V174.947H468.138Z" fill="#1C1C1C"/>
<path d="M429.99 174.947V50.6827H449.836V174.947H429.99ZM440.066 32.0583C434.977 32.0583 431.517 30.7353 429.685 28.0892C427.853 25.4431 426.937 22.3899 426.937 18.9297C426.937 15.6729 427.853 12.8233 429.685 10.3808C431.517 7.73469 434.977 6.41165 440.066 6.41165C445.154 6.41165 448.513 7.73469 450.141 10.3808C451.77 12.8233 452.584 15.6729 452.584 18.9297C452.584 22.3899 451.77 25.4431 450.141 28.0892C448.513 30.7353 445.154 32.0583 440.066 32.0583Z" fill="#1C1C1C"/>
<path d="M226 174.947V3.05317H259.89L315.763 166.093H316.374L371.331 3.05317H405.221V174.947H385.376L386.292 13.1286H385.681L330.113 174.947H301.108L245.54 13.1286H244.93L245.846 174.947H226Z" fill="#1C1C1C"/>
</svg>
